<svg width="24" height="24" viewBox="0 0 24 24" fill="none" xmlns="http://www.w3.org/2000/svg">
<path d="M16.9704 14.44C18.3404 14.67 19.8504 14.43 20.9104 13.72C22.3204 12.78 22.3204 11.24 20.9104 10.3C19.8404 9.59 18.3104 9.35 16.9404 9.59M7.00043 14.44C5.63043 14.67 4.12043 14.43 3.06043 13.72C1.65043 12.78 1.65043 11.24 3.06043 10.3C4.13043 9.59 5.66043 9.35 7.03043 9.59M18.0004 7.16C17.9375 7.14999 17.8734 7.14999 17.8104 7.16C17.1431 7.13587 16.5112 6.85321 16.0484 6.37176C15.5857 5.89032 15.3282 5.2478 15.3304 4.58C15.3304 3.15 16.4804 2 17.9104 2C18.5947 2 19.2509 2.27182 19.7348 2.75566C20.2186 3.23951 20.4904 3.89574 20.4904 4.58C20.4886 5.24827 20.2284 5.88996 19.7643 6.37081C19.3003 6.85167 18.6682 7.13445 18.0004 7.16ZM5.97043 7.16C6.03043 7.15 6.10043 7.15 6.16043 7.16C6.8278 7.13587 7.45964 6.85321 7.92242 6.37176C8.38521 5.89032 8.64268 5.2478 8.64043 4.58C8.64043 3.15 7.49043 2 6.06043 2C5.37617 2 4.71994 2.27182 4.23609 2.75566C3.75225 3.23951 3.48043 3.89574 3.48043 4.58C3.49043 5.98 4.59043 7.11 5.97043 7.16ZM12.0004 14.63C11.9375 14.62 11.8734 14.62 11.8104 14.63C11.1431 14.6059 10.5112 14.3232 10.0484 13.8418C9.58565 13.3603 9.32818 12.7178 9.33043 12.05C9.33043 10.62 10.4804 9.47 11.9104 9.47C12.5947 9.47 13.2509 9.74182 13.7348 10.2257C14.2186 10.7095 14.4904 11.3657 14.4904 12.05C14.4804 13.45 13.3804 14.59 12.0004 14.63ZM9.09043 17.78C7.68043 18.72 7.68043 20.26 9.09043 21.2C10.6904 22.27 13.3104 22.27 14.9104 21.2C16.3204 20.26 16.3204 18.72 14.9104 17.78C13.3204 16.72 10.6904 16.72 9.09043 17.78Z" stroke="#909090" stroke-width="1.5" stroke-linecap="round" stroke-linejoin="round"/>
</svg>
