<svg width="24" height="24" viewBox="0 0 24 24" fill="none" xmlns="http://www.w3.org/2000/svg">
<path d="M12 5.49001V20.49M22 4.67001V16.74C22 17.7 21.22 18.6 20.26 18.72L19.93 18.76C17.75 19.05 14.39 20.16 12.47 21.22C12.21 21.37 11.78 21.37 11.51 21.22L11.47 21.2C9.55 20.15 6.2 19.05 4.03 18.76L3.74 18.72C2.78 18.6 2 17.7 2 16.74V4.66001C2 3.47001 2.97 2.57001 4.16 2.67001C6.26 2.84001 9.44 3.90001 11.22 5.01001L11.47 5.16001C11.76 5.34001 12.24 5.34001 12.53 5.16001L12.7 5.05001C13.33 4.66001 14.13 4.27001 15 3.92001V8.00001L17 6.67001L19 8.00001V2.78001C19.27 2.73001 19.53 2.70001 19.77 2.68001H19.83C21.02 2.58001 22 3.47001 22 4.67001Z" stroke="#909090" stroke-width="1.5" stroke-linecap="round" stroke-linejoin="round"/>
<path d="M19 2.78V8L17 6.67L15 8V3.92C16.31 3.4 17.77 2.98 19 2.78Z" stroke="#909090" stroke-width="1.5" stroke-linecap="round" stroke-linejoin="round"/>
</svg>
