<svg width="32" height="32" viewBox="0 0 32 32" fill="none" xmlns="http://www.w3.org/2000/svg">
<path d="M15.9998 7.31999V27.32M10.3332 11.32H7.33317M11.3332 15.32H7.33317M29.3332 22.32V6.22665C29.3332 4.62665 28.0265 3.43999 26.4398 3.57332H26.3598C23.5598 3.81332 19.3065 5.23999 16.9332 6.73332L16.7065 6.87999C16.3198 7.11999 15.6798 7.11999 15.2932 6.87999L14.9598 6.67999C12.5865 5.19999 8.3465 3.78665 5.5465 3.55999C3.95984 3.42665 2.6665 4.62665 2.6665 6.21332V22.32C2.6665 23.6 3.7065 24.8 4.9865 24.96L5.37317 25.0133C8.2665 25.4 12.7332 26.8667 15.2932 28.2667L15.3465 28.2933C15.7065 28.4933 16.2798 28.4933 16.6265 28.2933C19.1865 26.88 23.6665 25.4 26.5732 25.0133L27.0132 24.96C28.2932 24.8 29.3332 23.6 29.3332 22.32Z" stroke="black" stroke-width="1.5" stroke-linecap="round" stroke-linejoin="round"/>
</svg>
