<svg width="32" height="32" viewBox="0 0 32 32" fill="none" xmlns="http://www.w3.org/2000/svg">
<path d="M16.0002 2.66663V10.6666M16.0002 10.6666L18.6668 7.99996M16.0002 10.6666L13.3335 7.99996" stroke="black" stroke-width="1.5" stroke-linecap="round" stroke-linejoin="round"/>
<path d="M6.66667 16.0001V10.6667C6.66667 7.98672 6.66667 5.77339 10.6667 5.38672M25.3333 16.0001V10.6667C25.3333 7.98672 25.3333 5.77339 21.3333 5.38672M9.33333 16.0001C4 16.0001 4 18.3867 4 21.3334V22.6667C4 26.3467 4 29.3334 10.6667 29.3334H21.3333C26.6667 29.3334 28 26.3467 28 22.6667V21.3334C28 18.3867 28 16.0001 22.6667 16.0001C21.3333 16.0001 20.96 16.2801 20.2667 16.8001L18.9067 18.2401C18.5328 18.6378 18.0814 18.9547 17.5803 19.1714C17.0793 19.388 16.5392 19.4998 15.9933 19.4998C15.4475 19.4998 14.9074 19.388 14.4063 19.1714C13.9053 18.9547 13.4539 18.6378 13.08 18.2401L11.7333 16.8001C11.04 16.2801 10.6667 16.0001 9.33333 16.0001Z" stroke="black" stroke-width="1.5" stroke-miterlimit="10" stroke-linecap="round" stroke-linejoin="round"/>
</svg>
