<svg width="24" height="24" viewBox="0 0 24 24" fill="none" xmlns="http://www.w3.org/2000/svg">
<path d="M16.4102 4C18.3502 4 19.9102 5.57 19.9102 7.5C19.9102 9.39 18.4102 10.93 16.5402 11C16.4538 10.99 16.3666 10.99 16.2802 11M18.3402 20C19.0602 19.85 19.7402 19.56 20.3002 19.13C21.8602 17.96 21.8602 16.03 20.3002 14.86C19.7502 14.44 19.0802 14.16 18.3702 14M9.16021 10.87C9.06021 10.86 8.94021 10.86 8.83021 10.87C7.68242 10.831 6.59486 10.3468 5.79784 9.51996C5.00083 8.69308 4.55696 7.58845 4.56021 6.44C4.56021 3.99 6.54022 2 9.00022 2C10.1765 1.97878 11.3129 2.42569 12.1597 3.24241C13.0064 4.05913 13.494 5.17876 13.5152 6.355C13.5364 7.53123 13.0895 8.66772 12.2728 9.51445C11.4561 10.3612 10.3364 10.8488 9.16021 10.87ZM4.16021 14.56C1.74021 16.18 1.74021 18.82 4.16021 20.43C6.91021 22.27 11.4202 22.27 14.1702 20.43C16.5902 18.81 16.5902 16.17 14.1702 14.56C11.4302 12.73 6.92021 12.73 4.16021 14.56Z" stroke="white" stroke-width="1.5" stroke-linecap="round" stroke-linejoin="round"/>
</svg>
